# xmcd CD database file
#
# Track frame offsets:
#	187
#	20577
#	41000
#	65285
#	84452
#	106117
#	127645
#	147627
#	166735
#	188220
#
# Disc length: 2793 seconds
#
# Revision: 3
# Processed by: cddbd v1.4PL0 Copyright (c) Steve Scherf et al.
# Submitted via: CDex 1.50Beta6
#
DISCID=7b0ae70a
DTITLE=Gino Vannelli - Inconsolable Man
DYEAR=1990
DGENRE=Pop/Funk
TTITLE0=Rhythm Of Romance
TTITLE1=If I Should Lose This Love
TTITLE2=Shame
TTITLE3=Sunset On L.A.
TTITLE4=Moment To Moment
TTITLE5=Cry Of Love
TTITLE6=The Time Of Day
TTITLE7=Bound To Cry
TTITLE8=The Joker's Wild
TTITLE9=Inconsolable Man
EXTD=YEAR: 1990
EXTT0=
EXTT1=
EXTT2=
EXTT3=
EXTT4=
EXTT5=
EXTT6=
EXTT7=
EXTT8=
EXTT9=
PLAYORDER=
